<svg width="120" height="80" viewBox="0 0 914 473" fill="none" xmlns="http://www.w3.org/2000/svg"><path d="M457.345.166h-61.239a5.147 5.147 0 00-5.147 5.146v61.754a5.147 5.147 0 005.147 5.146h61.239a5.146 5.146 0 005.146-5.146V5.312a5.146 5.146 0 00-5.146-5.146zm-61.239 118.619h61.239a5.149 5.149 0 015.146 5.146v207.39a5.149 5.149 0 01-5.146 5.146c-36.639 0-66.385-29.746-66.385-66.385V123.931a5.148 5.148 0 015.146-5.146zm512.409 0H842.13V5.312a5.146 5.146 0 00-5.146-5.146h-61.24a5.146 5.146 0 00-5.146 5.146v264.77c0 36.663 29.722 66.385 66.385 66.385a5.147 5.147 0 005.147-5.146V190.316h66.385a5.146 5.146 0 005.146-5.146v-61.239a5.146 5.146 0 00-5.146-5.146zm-397.291 5.146v282.01c0 36.663 29.722 66.385 66.385 66.385a5.147 5.147 0 005.147-5.146V335.953h77.192c36.664 0 66.386-29.722 66.386-66.386V185.17c0-36.664-29.722-66.385-66.386-66.385H516.37a5.146 5.146 0 00-5.146 5.146zm73.964 132.437v-57.999a4.833 4.833 0 014.833-4.833h57.515a4.833 4.833 0 014.834 4.833v57.999a4.833 4.833 0 01-4.834 4.833h-57.515a4.833 4.833 0 01-4.833-4.833z" fill="#2324AA"/><path d="M309.702 216.224v-40.999c0-2.364-1.586-3.536-2.268-3.929-.682-.394-2.49-1.181-4.538 0l-130.335 75.249c-10.892 6.289-24.424 6.289-35.315 0l-30.083-17.368a22.162 22.162 0 01-11.05-19.139v-.703c0-7.87 4.234-15.204 11.05-19.139l90.088-52.011a11.348 11.348 0 005.657-9.799c0-4.029-2.168-7.784-5.657-9.798l-30.082-17.368c-7.566-4.368-16.966-4.369-24.531-.001L4.499 180.974a8.811 8.811 0 00-4.396 7.608l.002 63.184c0 4.029 2.168 7.783 5.657 9.798l112.704 65.072c22.476 12.976 50.4 12.976 72.873-.002l81.93-47.306c22.472-12.975 36.432-37.155 36.433-63.104z" fill="#CE4686"/><path d="M112.554 219.835l30.083 17.369c7.566 4.368 16.965 4.368 24.531 0l138.138-79.754a8.816 8.816 0 004.396-7.615l-.002-63.878c0-4.03-2.167-7.784-5.656-9.798L188.075 9.202c-20.463-11.815-45.884-11.814-66.346 0L33.275 60.27C12.813 72.084.102 94.101.102 117.727v45.472c0 2.365 1.586 3.536 2.268 3.93.682.393 2.49 1.182 4.538 0l130.336-75.25a35.318 35.318 0 0117.658-4.717 35.312 35.312 0 0117.658 4.716l30.083 17.369a22.16 22.16 0 0111.05 19.138 22.162 22.162 0 01-11.05 19.14l-90.089 52.012a11.344 11.344 0 00-5.656 9.798v.703c0 4.029 2.167 7.783 5.656 9.797z" fill="#2324AA"/></svg>